<svg width="302" height="292" viewBox="0 0 302 292" fill="none" xmlns="http://www.w3.org/2000/svg" xmlns:xlink="http://www.w3.org/1999/xlink">
<g filter="url(#filter205_223)">
<path d="M302,0L0,0L0,292L302,292L302,0Z" fill="#FFFFFF"/>
<path d="M124.965,40.276L124.965,50.344L135.378,50.344L135.378,80.551L145.792,80.551L145.792,90.62L156.206,90.62L156.206,100.689L145.792,100.689L145.792,110.758L135.378,110.758L135.378,100.689L124.965,100.689L124.965,120.827L135.378,120.827L135.378,130.896L156.206,130.896L156.206,120.827L166.619,120.827L166.619,140.964L197.861,140.964L197.861,181.24L187.447,181.24L187.447,161.102L177.033,161.102L177.033,171.171L156.206,171.171L156.206,181.24L166.619,181.24L166.619,191.309L145.792,191.309L145.792,181.24L135.378,181.24L135.378,171.171L145.792,171.171L145.792,151.033L114.551,151.033L114.551,140.964L104.137,140.964L104.137,130.896L114.551,130.896L114.551,120.827L104.137,120.827L104.137,130.896L93.723,130.896L93.723,120.827L72.896,120.827L72.896,140.964L62.482,140.964L62.482,151.033L52.069,151.033L52.069,130.896L62.482,130.896L62.482,120.827L41.655,120.827L41.655,151.033L52.069,151.033L52.069,161.102L41.655,161.102L41.655,171.171L52.069,171.171L52.069,161.102L72.896,161.102L72.896,171.171L83.31,171.171L83.31,161.102L72.896,161.102L72.896,151.033L83.31,151.033L83.31,130.896L93.723,130.896L93.723,140.964L104.137,140.964L104.137,151.033L93.723,151.033L93.723,161.102L104.137,161.102L104.137,171.171L124.965,171.171L124.965,181.24L135.378,181.24L135.378,191.309L145.792,191.309L145.792,201.378L124.965,201.378L124.965,221.516L135.378,221.516L135.378,211.447L145.792,211.447L145.792,231.584L124.965,231.584L124.965,251.722L135.378,251.722L135.378,241.654L145.792,241.654L145.792,251.722L166.619,251.722L166.619,241.654L156.206,241.654L156.206,221.516L177.033,221.516L177.033,251.722L187.447,251.722L187.447,241.654L197.861,241.654L197.861,221.516L177.033,221.516L177.033,191.309L197.861,191.309L197.861,201.378L187.447,201.378L187.447,211.447L208.274,211.447L208.274,221.516L218.688,221.516L218.688,231.584L208.274,231.584L208.274,241.654L218.688,241.654L218.688,231.584L229.102,231.584L229.102,211.447L260.343,211.447L260.343,201.378L229.102,201.378L229.102,211.447L208.274,211.447L208.274,201.378L218.688,201.378L218.688,191.309L239.515,191.309L239.515,171.171L218.688,171.171L218.688,191.309L197.861,191.309L197.861,181.24L208.274,181.24L208.274,161.102L249.929,161.102L249.929,191.309L260.343,191.309L260.343,161.102L249.929,161.102L249.929,140.964L260.343,140.964L260.343,120.827L249.929,120.827L249.929,140.964L239.515,140.964L239.515,130.896L218.688,130.896L218.688,140.964L197.861,140.964L197.861,120.827L187.447,120.827L187.447,130.896L177.033,130.896L177.033,80.551L166.619,80.551L166.619,70.482L156.206,70.482L156.206,60.413L166.619,60.413L166.619,50.344L177.033,50.344L177.033,40.276L124.965,40.276ZM145.792,50.344L145.792,60.413L156.206,60.413L156.206,50.344L145.792,50.344ZM156.206,80.551L156.206,90.62L166.619,90.62L166.619,80.551L156.206,80.551ZM156.206,100.689L156.206,110.758L166.619,110.758L166.619,100.689L156.206,100.689ZM218.688,140.964L218.688,151.033L239.515,151.033L239.515,140.964L218.688,140.964ZM104.137,151.033L104.137,161.102L114.551,161.102L114.551,151.033L104.137,151.033ZM156.206,151.033L156.206,161.102L166.619,161.102L166.619,151.033L156.206,151.033ZM145.792,201.378L145.792,211.447L156.206,211.447L156.206,201.378L145.792,201.378ZM239.515,221.516L239.515,241.654L229.102,241.654L229.102,251.722L249.929,251.722L249.929,231.584L260.343,231.584L260.343,221.516L239.515,221.516ZM41.655,40.276L41.655,110.758L114.551,110.758L114.551,40.276L41.655,40.276ZM52.069,50.344L52.069,100.689L104.137,100.689L104.137,50.344L52.069,50.344ZM62.482,60.413L62.482,90.62L93.723,90.62L93.723,60.413L62.482,60.413ZM187.447,40.276L187.447,110.758L260.343,110.758L260.343,40.276L187.447,40.276ZM197.861,50.344L197.861,100.689L249.929,100.689L249.929,50.344L197.861,50.344ZM208.274,60.413L208.274,90.62L239.515,90.62L239.515,60.413L208.274,60.413ZM41.655,181.24L41.655,251.722L114.551,251.722L114.551,181.24L41.655,181.24ZM52.069,191.309L52.069,241.654L104.137,241.654L104.137,191.309L52.069,191.309ZM62.482,201.378L62.482,231.584L93.723,231.584L93.723,201.378L62.482,201.378Z" clip-rule="evenodd" fill-rule="evenodd" fill="#000000"/>
</g>
<defs>
<filter id="filter205_223" x="-4" y="-4" width="159" height="154" filterUnits="userSpaceOnUse" color-interpolation-filters="sRGB">
<feFlood flood-opacity="0" result="BackgroundImageFix"/>
<feColorMatrix in="SourceAlpha" type="matrix" values="0 0 0 0 0 0 0 0 0 0 0 0 0 0 0 0 0 0 127 0" result="hardAlpha"/>
<feMorphology radius="0" operator="dilate" in="SourceAlpha" result="0dropshadow"/>
<feOffset dx="0" dy="4"/>
<feGaussianBlur stdDeviation="2"/>
<feComposite in2="hardAlpha" operator="out"/>
<feColorMatrix type="matrix" values="0 0 0 0 0 0 0 0 0 0 0 0 0 0 0 0 0 0 0.25 0"/>
<feBlend mode="normal" in2="BackgroundImageFix" result="0dropshadow"/>
<feColorMatrix in="SourceAlpha" type="matrix" values="0 0 0 0 0 0 0 0 0 0 0 0 0 0 0 0 0 0 127 0" result="hardAlpha"/>
<feMorphology radius="0" operator="dilate" in="SourceAlpha" result="1dropshadow"/>
<feOffset dx="0" dy="4"/>
<feGaussianBlur stdDeviation="2"/>
<feComposite in2="hardAlpha" operator="out"/>
<feColorMatrix type="matrix" values="0 0 0 0 0 0 0 0 0 0 0 0 0 0 0 0 0 0 0.25 0"/>
<feBlend mode="normal" in2="0dropshadow" result="1dropshadow"/>
<feBlend mode="normal" in="SourceGraphic" in2="1dropshadow" result="shape"/>
</filter>
</defs>
</svg>
