<svg width="48" height="52" viewBox="0 0 48 52" fill="none" xmlns="http://www.w3.org/2000/svg" xmlns:xlink="http://www.w3.org/1999/xlink">
<path d="M24,5.504C30.141,5.504 30.868,5.529 33.294,5.65C35.911,5.78 38.34,6.35 40.209,8.381C42.078,10.413 42.602,13.053 42.722,15.898C42.832,18.534 42.856,19.325 42.856,26C42.856,32.675 42.833,33.466 42.722,36.102C42.602,38.947 42.078,41.588 40.209,43.619C38.34,45.65 35.911,46.22 33.294,46.35C30.869,46.47 30.142,46.496 24,46.496C17.858,46.496 17.131,46.471 14.706,46.35C12.089,46.22 9.659,45.65 7.791,43.619C5.922,41.588 5.398,38.947 5.278,36.102C5.168,33.466 5.144,32.675 5.144,26C5.144,19.325 5.167,18.534 5.278,15.898C5.398,13.053 5.922,10.413 7.791,8.381C9.659,6.35 12.089,5.78 14.706,5.65C17.132,5.53 17.859,5.504 24,5.504ZM24,1C17.754,1 16.971,1.029 14.517,1.15C10.78,1.335 7.497,2.33 4.86,5.196C2.225,8.06 1.309,11.628 1.138,15.693C1.027,18.359 1,19.21 1,26C1,32.79 1.027,33.641 1.138,36.307C1.309,40.37 2.224,43.939 4.86,46.804C7.496,49.669 10.778,50.665 14.517,50.85C16.971,50.971 17.754,51 24,51C30.246,51 31.029,50.971 33.483,50.85C37.219,50.665 40.503,49.67 43.14,46.804C45.775,43.94 46.691,40.372 46.862,36.307C46.973,33.641 47,32.79 47,26C47,19.21 46.973,18.359 46.862,15.693C46.691,11.63 45.776,8.061 43.14,5.196C40.504,2.331 37.222,1.335 33.483,1.15C31.029,1.029 30.246,1 24,1Z" fill="#FFF5E9"/>
<path d="M24,13.163C17.477,13.163 12.189,18.911 12.189,26C12.189,33.09 17.477,38.838 24,38.838C30.523,38.838 35.81,33.091 35.81,26C35.81,18.909 30.523,13.163 24,13.163ZM24,34.333C19.766,34.333 16.333,30.602 16.333,26C16.333,21.398 19.766,17.667 24,17.667C28.234,17.667 31.667,21.398 31.667,26C31.667,30.602 28.234,34.333 24,34.333Z" fill="#FFF5E9"/>
<path d="M36.278,15.655C37.802,15.655 39.038,14.312 39.038,12.655C39.038,10.998 37.802,9.655 36.278,9.655C34.753,9.655 33.518,10.998 33.518,12.655C33.518,14.312 34.753,15.655 36.278,15.655Z" fill="#FFF5E9"/>
</svg>
