<svg width="48" height="50" viewBox="0 0 48 50" fill="none" xmlns="http://www.w3.org/2000/svg" xmlns:xlink="http://www.w3.org/1999/xlink">
<path d="M24,3.504C30.141,3.504 30.868,3.529 33.294,3.65C35.911,3.78 38.34,4.35 40.209,6.381C42.078,8.413 42.602,11.053 42.722,13.898C42.832,16.534 42.856,17.325 42.856,24C42.856,30.675 42.833,31.466 42.722,34.102C42.602,36.947 42.078,39.588 40.209,41.619C38.34,43.65 35.911,44.22 33.294,44.35C30.869,44.47 30.142,44.496 24,44.496C17.858,44.496 17.131,44.471 14.706,44.35C12.089,44.22 9.66,43.65 7.791,41.619C5.922,39.588 5.398,36.947 5.278,34.102C5.168,31.466 5.144,30.675 5.144,24C5.144,17.325 5.167,16.534 5.278,13.898C5.398,11.053 5.922,8.413 7.791,6.381C9.66,4.35 12.089,3.78 14.706,3.65C17.132,3.53 17.859,3.504 24,3.504ZM24,-1C17.754,-1 16.971,-0.971 14.517,-0.85C10.78,-0.665 7.497,0.33 4.86,3.196C2.225,6.06 1.309,9.628 1.138,13.693C1.027,16.359 1,17.21 1,24C1,30.79 1.027,31.641 1.138,34.307C1.309,38.37 2.224,41.939 4.86,44.804C7.496,47.669 10.778,48.665 14.517,48.85C16.971,48.971 17.754,49 24,49C30.246,49 31.029,48.971 33.483,48.85C37.219,48.665 40.503,47.67 43.14,44.804C45.775,41.94 46.691,38.372 46.862,34.307C46.973,31.641 47,30.79 47,24C47,17.21 46.973,16.359 46.862,13.693C46.691,9.63 45.776,6.061 43.14,3.196C40.504,0.331 37.222,-0.665 33.483,-0.85C31.029,-0.971 30.246,-1 24,-1Z" fill="#FFF5E9"/>
<path d="M24,11.162C17.477,11.162 12.189,16.91 12.189,24C12.189,31.089 17.477,36.837 24,36.837C30.523,36.837 35.81,31.09 35.81,24C35.81,16.909 30.523,11.162 24,11.162ZM24,32.333C19.766,32.333 16.333,28.602 16.333,24C16.333,19.398 19.766,15.666 24,15.666C28.234,15.666 31.667,19.398 31.667,24C31.667,28.602 28.234,32.333 24,32.333Z" fill="#FFF5E9"/>
<path d="M36.278,13.655C37.802,13.655 39.038,12.312 39.038,10.655C39.038,8.998 37.802,7.655 36.278,7.655C34.753,7.655 33.518,8.998 33.518,10.655C33.518,12.312 34.753,13.655 36.278,13.655Z" fill="#FFF5E9"/>
</svg>
