<svg width="52" height="44" viewBox="0 0 52 44" fill="none" xmlns="http://www.w3.org/2000/svg" xmlns:xlink="http://www.w3.org/1999/xlink">
<path d="M50.833,4.437C48.965,5.339 47.096,6.015 45.019,6.241C47.096,4.888 48.757,2.633 49.588,0.152C47.511,1.505 45.435,2.407 43.151,2.858C41.282,0.603 38.583,-0.75 35.676,-0.75C30.069,-0.75 25.501,4.211 25.501,10.3C25.501,11.202 25.501,12.104 25.709,12.781C16.988,12.33 9.513,7.82 4.53,1.054C3.492,2.858 3.076,4.662 3.076,6.692C3.076,10.526 4.945,13.908 7.644,15.938C5.983,15.938 4.322,15.487 3.076,14.585C3.076,14.585 3.076,14.585 3.076,14.811C3.076,20.223 6.606,24.733 11.174,25.635C10.344,25.861 9.513,26.086 8.475,26.086C7.852,26.086 7.229,26.086 6.606,25.861C7.852,30.371 11.59,33.528 16.158,33.528C12.628,36.46 8.267,38.264 3.492,38.264C2.661,38.264 1.831,38.264 1,38.039C5.568,41.196 10.967,43 16.573,43C35.468,43 45.642,26.086 45.642,11.428C45.642,10.977 45.642,10.526 45.642,10.075C47.719,8.496 49.38,6.467 50.833,4.437Z" fill="#FFF5E9"/>
</svg>
